# xmcd
#
# Track frame offsets:
#	150
#	21395
#	37250
#	55630
#	72305
#	100390
#	117090
#	136710
#	155995
#	194155
#	215810
#	249508
#	276788
#
# Disc length: 4032 seconds
# Revision: 0
# Processed by: cddbd v1.5.2PL0 Copyright (c) Steve Scherf et al.
# Submitted via: dBpowerAMP V12.0
#
DISCID=cd0fbe0d
DTITLE=Calvin Russell - In Spite Of It All
DYEAR=2005
DGENRE=Blues Rock
TTITLE0=Oval Room
TTITLE1=My Money's On You
TTITLE2=But I Got You
TTITLE3=Live Till I Die
TTITLE4=Over and Over
TTITLE5=Just Like L.A.
TTITLE6=In Spite Of It All
TTITLE7=Too Much Room
TTITLE8=Cans
TTITLE9=Voodoo River
TTITLE10=Crossroads (Live)
TTITLE11=Wild, Wild West (Live)
TTITLE12=Freight Train (Live)
EXTD=
EXTT0=
EXTT1=
EXTT2=
EXTT3=
EXTT4=
EXTT5=
EXTT6=
EXTT7=
EXTT8=
EXTT9=
EXTT10=
EXTT11=
EXTT12=
PLAYORDER=
